<?xml version="1.0" encoding="utf-8"?>
<svg viewBox="12.3591 169.2442 471.6351 311.5443" xmlns="http://www.w3.org/2000/svg">
  <g transform="matrix(0.40241903066635126, 0, 0, -0.3978240191936493, -657.2661841104355, 1342.8250932518404)" fill="currentColor" stroke="currentColor" style="">
    <path d="M2145 2850 l-100 -100 -190 0 -191 0 7 -79 c6 -66 15 -95 54 -176 65 -133 136 -204 269 -269 111 -54 190 -67 335 -55 113 10 250 77 337 166 88 88 153 224 163 334 l7 79 -190 0 -191 0 -102 -102 -103 -102 -50 49 -50 49 102 103 102 103 -49 50 c-27 27 -52 50 -55 50 -3 0 -50 -45 -105 -100z" fill="currentColor" stroke="currentColor"/>
  </g>
</svg>